<svg xmlns="http://www.w3.org/2000/svg" viewBox="0 0 64 64" width="64" height="64">
  <defs>
    <radialGradient id="bg" cx="50%" cy="40%" r="60%">
      <stop offset="0%" stop-color="#0a3060"/>
      <stop offset="100%" stop-color="#020e25"/>
    </radialGradient>
  </defs>
  <rect width="64" height="64" rx="12" fill="url(#bg)"/>
  <circle cx="32" cy="30" r="12" fill="none" stroke="#44aaff" stroke-width="2"/>
  <path d="M32,18 A12,12 0 0,1 44,30 A6,6 0 0,1 32,30 A6,6 0 0,0 20,30 A12,12 0 0,1 32,18Z" fill="#44aaff" opacity="0.8"/>
  <circle cx="32" cy="24" r="3" fill="#fff" opacity="0.6"/>
  <circle cx="32" cy="36" r="3" fill="#0a3060" opacity="0.9"/>
  <path d="M32,8 L32,12 M26,10 L28,14 M38,10 L36,14" stroke="#44aaff" stroke-width="1.5" stroke-linecap="round" opacity="0.7"/>
  <path d="M24,48 Q32,42 40,48" stroke="#44aaff" stroke-width="2" stroke-linecap="round" fill="none" opacity="0.6"/>
  <circle cx="32" cy="32" r="30" fill="none" stroke="#2882DC" stroke-width="1.5" opacity="0.4"/>
</svg>
